<svg xmlns="http://www.w3.org/2000/svg" width="18" height="18" viewBox="0 0 18 18" fill="none"><path d="M12.1425 1.5H5.8575C3.1275 1.5 1.5 3.1275 1.5 5.8575V12.135C1.5 14.8725 3.1275 16.5 5.8575 16.5H12.135C14.865 16.5 16.4925 14.8725 16.4925 12.1425V5.8575C16.5 3.1275 14.8725 1.5 12.1425 1.5ZM12.9375 9.2475C12.9375 9.555 12.6825 9.81 12.375 9.81C12.0675 9.81 11.8125 9.555 11.8125 9.2475V6.9825L6.0225 12.7725C5.91 12.885 5.7675 12.9375 5.625 12.9375C5.4825 12.9375 5.34 12.885 5.2275 12.7725C5.01 12.555 5.01 12.195 5.2275 11.9775L11.0175 6.1875H8.7525C8.445 6.1875 8.19 5.9325 8.19 5.625C8.19 5.3175 8.445 5.0625 8.7525 5.0625H12.375C12.6825 5.0625 12.9375 5.3175 12.9375 5.625V9.2475Z" fill="white"></path></svg>