<svg xmlns="http://www.w3.org/2000/svg" width="13" height="16" viewBox="0 0 13 16" fill="none"><path d="M12 4.5V11.5C12 14.3 11.3438 15 8.71875 15H4.78125C2.15625 15 1.5 14.3 1.5 11.5V4.5C1.5 1.7 2.15625 1 4.78125 1H8.71875C11.3438 1 12 1.7 12 4.5Z" stroke="white" style="stroke:white;stroke-opacity:1;" stroke-width="1.5" stroke-linecap="round" stroke-linejoin="round"></path><path d="M8.0625 3.45H5.4375" stroke="white" style="stroke:white;stroke-opacity:1;" stroke-width="1.5" stroke-linecap="round" stroke-linejoin="round"></path><path d="M6.74961 12.97C7.31139 12.97 7.7668 12.4842 7.7668 11.885C7.7668 11.2858 7.31139 10.8 6.74961 10.8C6.18783 10.8 5.73242 11.2858 5.73242 11.885C5.73242 12.4842 6.18783 12.97 6.74961 12.97Z" stroke="white" style="stroke:white;stroke-opacity:1;" stroke-width="1.5" stroke-linecap="round" stroke-linejoin="round"></path></svg>