<svg xmlns="http://www.w3.org/2000/svg" width="624" height="146" viewBox="0 0 624 146" fill="none"><path d="M624 4.05163e-06H0.00867575C0.00862816 13.5019 -0.0108209 54.0073 0.00867575 93.607C0.0281747 133.207 0.00873733 131.054 0.00871354 145.979C0.00871354 145.979 453.42 145.979 468.746 145.979C484.072 145.979 525.851 148.353 542.507 102.96C559.162 57.567 619.836 0.0334221 624 4.05163e-06Z" fill="white"></path><path d="M30 123V23H73.3594C80.9765 23 87.3731 24.0254 92.5489 26.0761C97.7572 28.1269 101.68 31.024 104.316 34.7676C106.986 38.511 108.32 42.9218 108.32 48C108.32 51.6784 107.507 55.0313 105.879 58.0586C104.284 61.0859 102.038 63.625 99.1407 65.6757C96.2435 67.6941 92.8581 69.0937 88.9844 69.875V70.8515C93.2813 71.0143 97.1876 72.1049 100.703 74.123C104.219 76.1087 107.018 78.8594 109.102 82.375C111.185 85.858 112.227 89.9596 112.227 94.6797C112.227 100.148 110.794 105.015 107.93 109.279C105.098 113.543 101.061 116.896 95.8203 119.338C90.5794 121.78 84.3295 123 77.0703 123H30ZM57.1484 101.32H69.8437C74.4011 101.32 77.8191 100.474 80.0976 98.7812C82.3763 97.0559 83.5156 94.5169 83.5156 91.1641C83.5156 88.8203 82.9785 86.8347 81.9043 85.207C80.8301 83.5794 79.3001 82.3425 77.3145 81.4961C75.3614 80.6497 73.0013 80.2266 70.2344 80.2266H57.1484V101.32ZM57.1484 63.4297H68.2812C70.6575 63.4297 72.7572 63.0553 74.5801 62.3066C76.4029 61.558 77.8191 60.4838 78.8281 59.084C79.8698 57.6516 80.3907 55.9102 80.3907 53.8593C80.3907 50.7669 79.2838 48.4069 77.0703 46.7793C74.8568 45.1191 72.0573 44.2891 68.6719 44.2891H57.1484V63.4297Z" fill="#ADCE05"></path><path d="M162.509 89.764V57.7936H180.381V114.044H163.315V103.57H162.729C161.483 107.012 159.359 109.747 156.356 111.773C153.378 113.775 149.777 114.776 145.553 114.776C141.72 114.776 138.351 113.897 135.446 112.139C132.541 110.381 130.283 107.928 128.671 104.778C127.06 101.605 126.242 97.8939 126.218 93.6457V57.7936H144.125V90.1302C144.15 93.1819 144.955 95.5867 146.542 97.3445C148.13 99.1023 150.29 99.9813 153.024 99.9813C154.807 99.9813 156.405 99.5907 157.822 98.8094C159.262 98.0038 160.398 96.8441 161.228 95.3304C162.082 93.7923 162.509 91.9368 162.509 89.764ZM191.779 114.044V57.7936H209.687V114.044H191.779ZM200.75 51.2384C198.236 51.2384 196.075 50.4084 194.268 48.7482C192.462 47.0637 191.559 45.0373 191.559 42.6692C191.559 40.3254 192.462 38.3235 194.268 36.6633C196.075 34.9788 198.236 34.1365 200.75 34.1365C203.289 34.1365 205.45 34.9788 207.233 36.6633C209.04 38.3235 209.942 40.3254 209.942 42.6692C209.942 45.0373 209.04 47.0637 207.233 48.7482C205.45 50.4084 203.289 51.2384 200.75 51.2384ZM238.993 39.0436V114.044H221.084V39.0436H238.993ZM270.934 114.85C266.785 114.85 263.012 113.775 259.619 111.627C256.226 109.478 253.516 106.256 251.489 101.959C249.462 97.6619 248.449 92.3275 248.449 85.9553C248.449 79.3391 249.499 73.8947 251.598 69.6223C253.699 65.3497 256.445 62.1882 259.839 60.1374C263.256 58.0866 266.931 57.0612 270.862 57.0612C273.816 57.0612 276.342 57.5738 278.443 58.5993C280.542 59.6002 282.276 60.8942 283.642 62.4811C285.01 64.068 286.047 65.7159 286.755 67.425H287.121V39.0436H305.029V114.044H287.304V104.925H286.755C285.998 106.659 284.924 108.282 283.533 109.796C282.141 111.309 280.395 112.531 278.296 113.457C276.221 114.386 273.767 114.85 270.934 114.85ZM277.161 100.897C279.333 100.897 281.189 100.286 282.727 99.0657C284.264 97.8206 285.449 96.075 286.279 93.8289C287.109 91.5828 287.524 88.9461 287.524 85.9187C287.524 82.8425 287.109 80.1937 286.279 77.972C285.474 75.7502 284.289 74.0412 282.727 72.8449C281.189 71.6486 279.333 71.0504 277.161 71.0504C274.939 71.0504 273.059 71.6608 271.521 72.8815C269.983 74.1022 268.81 75.8235 268.005 78.0453C267.224 80.2669 266.834 82.8914 266.834 85.9187C266.834 88.9461 267.237 91.5828 268.042 93.8289C268.847 96.075 270.007 97.8206 271.521 99.0657C273.059 100.286 274.939 100.897 277.161 100.897ZM348.105 57.7936V70.9773H312.619V57.7936H348.105ZM320.053 44.3171L337.961 39.0436V44.3171V96.3557C337.961 97.4544 338.131 98.3455 338.474 99.0291C338.84 99.6883 339.364 100.164 340.048 100.457C340.732 100.726 341.549 100.86 342.502 100.86C343.186 100.86 343.905 100.799 344.663 100.677C345.443 100.531 346.029 100.409 346.421 100.311L349.13 113.238C348.276 113.482 347.068 113.788 345.505 114.154C343.967 114.519 342.124 114.751 339.975 114.85C335.775 115.045 332.175 114.556 329.172 113.385C326.193 112.188 323.91 110.333 322.324 107.818C320.761 105.304 320.005 102.142 320.053 98.3331V44.3171ZM382.895 115.106C376.986 115.106 371.908 113.897 367.661 111.48C363.436 109.039 360.178 105.645 357.882 101.3C355.612 96.9295 354.477 91.8635 354.477 86.1019C354.477 80.3157 355.612 75.2497 357.882 70.904C360.178 66.5338 363.436 63.1403 367.661 60.7233C371.908 58.2818 376.986 57.0612 382.895 57.0612C388.803 57.0612 393.869 58.2818 398.092 60.7233C402.34 63.1403 405.6 66.5338 407.871 70.904C410.165 75.2497 411.313 80.3157 411.313 86.1019C411.313 91.8635 410.165 96.9295 407.871 101.3C405.6 105.645 402.34 109.039 398.092 111.48C393.869 113.897 388.803 115.106 382.895 115.106ZM383.004 101.593C385.153 101.593 386.972 100.933 388.461 99.6151C389.95 98.2967 391.086 96.4656 391.867 94.1218C392.672 91.7781 393.075 89.0681 393.075 85.992C393.075 82.867 392.672 80.1326 391.867 77.7889C391.086 75.4452 389.95 73.614 388.461 72.2956C386.972 70.9773 385.153 70.318 383.004 70.318C380.783 70.318 378.903 70.9773 377.366 72.2956C375.852 73.614 374.692 75.4452 373.886 77.7889C373.104 80.1326 372.714 82.867 372.714 85.992C372.714 89.0681 373.104 91.7781 373.886 94.1218C374.692 96.4656 375.852 98.2967 377.366 99.6151C378.903 100.933 380.783 101.593 383.004 101.593ZM438.395 81.9636V114.044H420.486V57.7936H437.516V68.1208H438.138C439.383 64.6784 441.507 61.9806 444.51 60.0275C447.513 58.0499 451.089 57.0612 455.24 57.0612C459.195 57.0612 462.625 57.9523 465.53 59.7346C468.46 61.4923 470.73 63.9581 472.342 67.1321C473.978 70.2814 474.783 73.968 474.758 78.1917V114.044H456.852V81.7073C456.876 78.5824 456.082 76.1409 454.471 74.3831C452.884 72.6253 450.674 71.7463 447.843 71.7463C445.962 71.7463 444.302 72.1612 442.862 72.9914C441.445 73.797 440.347 74.9568 439.566 76.4705C438.81 77.9841 438.418 79.8152 438.395 81.9636Z" fill="#06590A"></path><path d="M200.34 51.7947C205.764 51.7947 210.162 47.3975 210.162 41.9733C210.162 36.549 205.764 32.1519 200.34 32.1519C194.917 32.1519 190.519 36.549 190.519 41.9733C190.519 47.3975 194.917 51.7947 200.34 51.7947Z" fill="#ADCE05"></path><path d="M105.809 121.159H479.023" stroke="#ADCE05" stroke-width="3"></path></svg>