<svg xmlns="http://www.w3.org/2000/svg" width="23" height="22" viewBox="0 0 23 22" fill="none"><path d="M18.5558 4.48236L13.1841 2.08986C12.3958 1.74153 11.2041 1.74153 10.4158 2.08986L5.04409 4.48236C3.68743 5.08736 3.48576 5.91236 3.48576 6.35236C3.48576 6.79236 3.68743 7.61736 5.04409 8.22236L10.4158 10.6149C10.8099 10.789 11.3049 10.8807 11.7999 10.8807C12.2949 10.8807 12.7899 10.789 13.1841 10.6149L18.5558 8.22236C19.9124 7.61736 20.1141 6.79236 20.1141 6.35236C20.1141 5.91236 19.9216 5.08736 18.5558 4.48236Z" fill="white"></path><path d="M11.7996 15.6199C11.4513 15.6199 11.1029 15.5465 10.7821 15.409L4.60377 12.659C3.6596 12.2374 2.92627 11.1099 2.92627 10.074C2.92627 9.6982 3.22877 9.3957 3.6046 9.3957C3.98044 9.3957 4.28294 9.6982 4.28294 10.074C4.28294 10.569 4.69544 11.2107 5.15377 11.4124L11.3321 14.1624C11.6254 14.2907 11.9646 14.2907 12.2579 14.1624L18.4363 11.4124C18.8946 11.2107 19.3071 10.5782 19.3071 10.074C19.3071 9.6982 19.6096 9.3957 19.9854 9.3957C20.3613 9.3957 20.6638 9.6982 20.6638 10.074C20.6638 11.1007 19.9304 12.2374 18.9863 12.659L12.8079 15.409C12.4963 15.5465 12.1479 15.6199 11.7996 15.6199Z" fill="white"></path><path d="M11.7996 20.1666C11.4513 20.1666 11.1029 20.0932 10.7821 19.9557L4.60377 17.2057C3.58627 16.7566 2.92627 15.7391 2.92627 14.6207C2.92627 14.2449 3.22877 13.9424 3.6046 13.9424C3.98044 13.9424 4.28294 14.2449 4.28294 14.6207C4.28294 15.1982 4.6221 15.7207 5.15377 15.9591L11.3321 18.7091C11.6254 18.8374 11.9646 18.8374 12.2579 18.7091L18.4363 15.9591C18.9588 15.7299 19.3071 15.1982 19.3071 14.6207C19.3071 14.2449 19.6096 13.9424 19.9854 13.9424C20.3613 13.9424 20.6638 14.2449 20.6638 14.6207C20.6638 15.7391 20.0038 16.7474 18.9863 17.2057L12.8079 19.9557C12.4963 20.0932 12.1479 20.1666 11.7996 20.1666Z" fill="white"></path></svg>