<svg xmlns="http://www.w3.org/2000/svg" width="23" height="22" viewBox="0 0 23 22" fill="none"><path d="M14.5514 6.00397H5.89811C5.64144 6.00397 5.40311 6.01314 5.18311 6.0223C3.01061 6.15064 2.43311 6.94814 2.43311 9.42314V9.9548C2.43311 10.459 2.84561 10.8715 3.34977 10.8715H17.0998C17.6039 10.8715 18.0164 10.459 18.0164 9.9548V9.42314C18.0164 6.69147 17.3198 6.00397 14.5514 6.00397Z" fill="white"></path><path d="M3.34977 12.2465C2.84561 12.2465 2.43311 12.659 2.43311 13.1631V15.8306C2.43311 18.5623 3.12977 19.2498 5.89811 19.2498H14.5514C17.2739 19.2498 17.9889 18.5898 18.0164 15.9773V13.1631C18.0164 12.659 17.6039 12.2465 17.0998 12.2465H3.34977ZM6.97977 17.0131H5.41227C5.03644 17.0131 4.72477 16.7015 4.72477 16.3256C4.72477 15.9498 5.03644 15.6381 5.41227 15.6381H6.98894C7.36477 15.6381 7.67644 15.9498 7.67644 16.3256C7.67644 16.7015 7.36477 17.0131 6.97977 17.0131ZM12.1039 17.0131H8.9506C8.57477 17.0131 8.2631 16.7015 8.2631 16.3256C8.2631 15.9498 8.57477 15.6381 8.9506 15.6381H12.1039C12.4798 15.6381 12.7914 15.9498 12.7914 16.3256C12.7914 16.7015 12.4889 17.0131 12.1039 17.0131Z" fill="white"></path><path d="M20.7664 12.219V7.41564C20.7664 4.54647 19.1256 3.2998 16.6506 3.2998H8.46477C7.76811 3.2998 7.14477 3.40064 6.59477 3.61147C6.16394 3.7673 5.77894 3.99647 5.46727 4.29897C5.30227 4.4548 5.43061 4.71147 5.66894 4.71147H15.6331C17.6956 4.71147 19.3639 6.3798 19.3639 8.4423V15.0148C19.3639 15.244 19.6114 15.3723 19.7764 15.2073C20.4089 14.5381 20.7664 13.5573 20.7664 12.219Z" fill="white"></path></svg>