<svg xmlns="http://www.w3.org/2000/svg" width="23" height="22" viewBox="0 0 23 22" fill="none"><path d="M6.3584 1.8335C5.38673 1.8335 4.4884 2.17266 3.78257 2.741C2.82923 3.49266 2.2334 4.65683 2.2334 5.9585C2.2334 6.7285 2.4534 7.46183 2.82923 8.08516C3.32423 8.91016 4.1034 9.55183 5.0384 9.8635C5.4509 10.0102 5.8909 10.0835 6.3584 10.0835C7.4034 10.0835 8.34756 9.6985 9.07173 9.05683C9.39256 8.78183 9.66757 8.45183 9.88757 8.08516C10.0801 7.76433 10.2267 7.42516 10.3276 7.0585C10.4284 6.71016 10.4834 6.33433 10.4834 5.9585C10.4834 3.676 8.6409 1.8335 6.3584 1.8335ZM7.88006 6.646H7.06423V7.4985C7.06423 7.87433 6.75256 8.186 6.37673 8.186C6.0009 8.186 5.68923 7.8835 5.68923 7.4985V6.646H4.80007C4.42423 6.646 4.11257 6.33433 4.11257 5.9585C4.11257 5.58266 4.42423 5.271 4.80007 5.271H5.68923V4.4185C5.68923 4.04266 6.0009 3.731 6.37673 3.731C6.75256 3.731 7.06423 4.0335 7.06423 4.4185V5.271H7.88006C8.2559 5.271 8.56756 5.58266 8.56756 5.9585C8.56756 6.33433 8.26506 6.646 7.88006 6.646Z" fill="white"></path><path d="M15.0666 19.516L6.4866 20.5243C5.89076 20.5976 5.3591 20.506 4.90993 20.286C4.43326 20.0476 4.05743 19.681 3.8191 19.1951C3.5991 18.746 3.5166 18.2235 3.58076 17.6368L4.35993 11.0826C4.43326 11.1101 4.5066 11.1376 4.57993 11.156C5.1391 11.3576 5.73493 11.4585 6.35826 11.4585C7.6966 11.4585 8.9891 10.9726 9.96993 10.1018C10.3916 9.73514 10.7674 9.29514 11.0699 8.79097C11.3266 8.36014 11.5191 7.9018 11.6474 7.45264C11.7116 7.2143 11.7666 6.95764 11.8033 6.70097C11.8124 6.65514 11.8124 6.6093 11.8124 6.56347L11.9683 6.57264L17.5416 12.1551L17.7799 16.2068C18.0091 18.4801 17.2208 19.2685 15.0666 19.516Z" fill="white"></path><path d="M20.5668 9.42352L18.6693 10.6244C18.3118 10.8444 17.8535 10.7985 17.5601 10.496L13.4993 6.43519C13.206 6.14185 13.151 5.68352 13.371 5.32602L14.5718 3.42852C15.3051 2.27352 16.7718 2.21852 17.8626 3.29102L20.7135 6.14185C21.7126 7.15935 21.6485 8.73602 20.5668 9.42352Z" fill="white"></path></svg>