<svg xmlns="http://www.w3.org/2000/svg" width="23" height="22" viewBox="0 0 23 22" fill="none"><path d="M13.7024 1.8335H8.69737V5.83016H13.7024V1.8335Z" fill="white"></path><path d="M15.0774 1.8335V5.83016H20.2474C19.7799 3.30933 17.919 1.84266 15.0774 1.8335Z" fill="white"></path><path d="M2.0332 7.20516V14.841C2.0332 18.1777 4.02237 20.1668 7.35904 20.1668H15.0407C18.3774 20.1668 20.3665 18.1777 20.3665 14.841V7.20516H2.0332ZM13.4365 14.8318L11.5299 15.9318C11.1265 16.161 10.7324 16.2802 10.3657 16.2802C10.0907 16.2802 9.8432 16.216 9.61404 16.0877C9.08237 15.7852 8.78904 15.1618 8.78904 14.3552V12.1552C8.78904 11.3485 9.08237 10.7252 9.61404 10.4227C10.1457 10.111 10.824 10.166 11.5299 10.5785L13.4365 11.6785C14.1424 12.0818 14.5274 12.6502 14.5274 13.2643C14.5274 13.8785 14.1332 14.4193 13.4365 14.8318Z" fill="white"></path><path d="M7.32237 1.8335C4.4807 1.84266 2.61987 3.30933 2.15237 5.83016H7.32237V1.8335Z" fill="white"></path></svg>