<svg xmlns="http://www.w3.org/2000/svg" width="22" height="22" viewBox="0 0 22 22" fill="none"><path d="M12.311 4.97766V6.206C9.90933 6.3985 8.5435 7.9385 8.5435 10.4777V14.6668H4.97766C2.8785 14.6668 1.8335 13.6218 1.8335 11.5227V4.97766C1.8335 2.8785 2.8785 1.8335 4.97766 1.8335H9.16683C11.266 1.8335 12.311 2.8785 12.311 4.97766Z" fill="white"></path><path d="M17.0225 7.3335H12.8333C10.7342 7.3335 9.68917 8.3785 9.68917 10.4777V17.0227C9.68917 19.1218 10.7342 20.1668 12.8333 20.1668H17.0225C19.1217 20.1668 20.1667 19.1218 20.1667 17.0227V10.4777C20.1667 8.3785 19.1217 7.3335 17.0225 7.3335ZM16.6192 14.4377H15.8125V15.2443C15.8125 15.6202 15.5008 15.9318 15.125 15.9318C14.7492 15.9318 14.4375 15.6202 14.4375 15.2443V14.4377H13.6308C13.255 14.4377 12.9433 14.126 12.9433 13.7502C12.9433 13.3743 13.255 13.0627 13.6308 13.0627H14.4375V12.256C14.4375 11.8802 14.7492 11.5685 15.125 11.5685C15.5008 11.5685 15.8125 11.8802 15.8125 12.256V13.0627H16.6192C16.995 13.0627 17.3067 13.3743 17.3067 13.7502C17.3067 14.126 16.995 14.4377 16.6192 14.4377Z" fill="white"></path></svg>